<mxfile host="app.diagrams.net" modified="2021-09-01T09:54:55.901Z" agent="5.0 (Macintosh; Intel Mac OS X 10_15_7) AppleWebKit/537.36 (KHTML, like Gecko) Chrome/92.0.4515.159 Safari/537.36" etag="WfsmAoOsIB0VjHdiSPg7" version="15.0.4" type="github">
  <diagram id="DZNZOSlrjOmHy_6pjqIU" name="第 1 页">
    <mxGraphModel dx="1426" dy="860" grid="1" gridSize="10" guides="1" tooltips="1" connect="1" arrows="1" fold="1" page="1" pageScale="1" pageWidth="3300" pageHeight="4681" math="0" shadow="0">
      <root>
        <mxCell id="0" />
        <mxCell id="1" parent="0" />
        <mxCell id="oOyvB2ZXRWYODoMXoCsp-5" style="edgeStyle=orthogonalEdgeStyle;rounded=0;orthogonalLoop=1;jettySize=auto;html=1;dashed=1;endArrow=none;endFill=0;" edge="1" parent="1" source="oOyvB2ZXRWYODoMXoCsp-4">
          <mxGeometry relative="1" as="geometry">
            <mxPoint x="120" y="1280" as="targetPoint" />
            <Array as="points">
              <mxPoint x="100" y="1280" />
            </Array>
          </mxGeometry>
        </mxCell>
        <mxCell id="oOyvB2ZXRWYODoMXoCsp-4" value="Actor" style="shape=umlActor;verticalLabelPosition=bottom;verticalAlign=top;html=1;" vertex="1" parent="1">
          <mxGeometry x="80" y="20" width="40" height="60" as="geometry" />
        </mxCell>
        <mxCell id="oOyvB2ZXRWYODoMXoCsp-6" value="学习路径服务" style="shape=umlLifeline;perimeter=lifelinePerimeter;whiteSpace=wrap;html=1;container=1;collapsible=0;recursiveResize=0;outlineConnect=0;" vertex="1" parent="1">
          <mxGeometry x="280" y="40" width="80" height="1250" as="geometry" />
        </mxCell>
        <mxCell id="oOyvB2ZXRWYODoMXoCsp-7" value="" style="html=1;points=[];perimeter=orthogonalPerimeter;" vertex="1" parent="oOyvB2ZXRWYODoMXoCsp-6">
          <mxGeometry x="35" y="80" width="10" height="680" as="geometry" />
        </mxCell>
        <mxCell id="oOyvB2ZXRWYODoMXoCsp-16" value="获取用户id,客户端版本和学科检查" style="edgeStyle=orthogonalEdgeStyle;html=1;align=left;spacingLeft=2;endArrow=block;rounded=0;dashed=1;" edge="1" parent="oOyvB2ZXRWYODoMXoCsp-6">
          <mxGeometry x="1" y="-20" relative="1" as="geometry">
            <mxPoint x="35" y="100" as="sourcePoint" />
            <Array as="points">
              <mxPoint x="80" y="100" />
              <mxPoint x="80" y="136" />
            </Array>
            <mxPoint x="35" y="136" as="targetPoint" />
            <mxPoint x="-11" y="4" as="offset" />
          </mxGeometry>
        </mxCell>
        <mxCell id="oOyvB2ZXRWYODoMXoCsp-43" value="过滤主题课，组装课包信息" style="edgeStyle=orthogonalEdgeStyle;html=1;align=left;spacingLeft=2;endArrow=block;rounded=0;" edge="1" parent="oOyvB2ZXRWYODoMXoCsp-6">
          <mxGeometry relative="1" as="geometry">
            <mxPoint x="35" y="520" as="sourcePoint" />
            <Array as="points">
              <mxPoint x="65" y="520" />
              <mxPoint x="65" y="540" />
            </Array>
            <mxPoint x="36" y="540" as="targetPoint" />
          </mxGeometry>
        </mxCell>
        <mxCell id="oOyvB2ZXRWYODoMXoCsp-10" value="" style="html=1;points=[];perimeter=orthogonalPerimeter;" vertex="1" parent="1">
          <mxGeometry x="95" y="110" width="10" height="730" as="geometry" />
        </mxCell>
        <mxCell id="oOyvB2ZXRWYODoMXoCsp-8" value="获取我的课程" style="html=1;verticalAlign=bottom;endArrow=block;entryX=0;entryY=0;" edge="1" target="oOyvB2ZXRWYODoMXoCsp-7" parent="1">
          <mxGeometry relative="1" as="geometry">
            <mxPoint x="100" y="120" as="sourcePoint" />
          </mxGeometry>
        </mxCell>
        <mxCell id="oOyvB2ZXRWYODoMXoCsp-11" value="用户服务" style="shape=umlLifeline;perimeter=lifelinePerimeter;whiteSpace=wrap;html=1;container=1;collapsible=0;recursiveResize=0;outlineConnect=0;" vertex="1" parent="1">
          <mxGeometry x="520" y="40" width="80" height="1250" as="geometry" />
        </mxCell>
        <mxCell id="oOyvB2ZXRWYODoMXoCsp-12" value="" style="html=1;points=[];perimeter=orthogonalPerimeter;" vertex="1" parent="oOyvB2ZXRWYODoMXoCsp-11">
          <mxGeometry x="35" y="80" width="10" height="320" as="geometry" />
        </mxCell>
        <mxCell id="oOyvB2ZXRWYODoMXoCsp-24" value="return" style="html=1;verticalAlign=bottom;endArrow=open;dashed=1;endSize=8;" edge="1" parent="1" source="oOyvB2ZXRWYODoMXoCsp-11">
          <mxGeometry relative="1" as="geometry">
            <mxPoint x="550" y="240" as="sourcePoint" />
            <mxPoint x="320" y="240" as="targetPoint" />
            <Array as="points">
              <mxPoint x="440" y="240" />
            </Array>
          </mxGeometry>
        </mxCell>
        <mxCell id="oOyvB2ZXRWYODoMXoCsp-23" value="同步用户进入记录" style="html=1;verticalAlign=bottom;endArrow=block;" edge="1" parent="1">
          <mxGeometry width="80" relative="1" as="geometry">
            <mxPoint x="320" y="200" as="sourcePoint" />
            <mxPoint x="560" y="200" as="targetPoint" />
            <Array as="points">
              <mxPoint x="440" y="200" />
            </Array>
          </mxGeometry>
        </mxCell>
        <mxCell id="oOyvB2ZXRWYODoMXoCsp-26" value="返回用户课程" style="html=1;verticalAlign=bottom;endArrow=open;dashed=1;endSize=8;" edge="1" parent="1" target="oOyvB2ZXRWYODoMXoCsp-6">
          <mxGeometry relative="1" as="geometry">
            <mxPoint x="560" y="318" as="sourcePoint" />
            <mxPoint x="330" y="360" as="targetPoint" />
          </mxGeometry>
        </mxCell>
        <mxCell id="oOyvB2ZXRWYODoMXoCsp-25" value="获取用户订购课程" style="html=1;verticalAlign=bottom;endArrow=block;" edge="1" parent="1" source="oOyvB2ZXRWYODoMXoCsp-6">
          <mxGeometry width="80" relative="1" as="geometry">
            <mxPoint x="330" y="320" as="sourcePoint" />
            <mxPoint x="560" y="277" as="targetPoint" />
          </mxGeometry>
        </mxCell>
        <mxCell id="oOyvB2ZXRWYODoMXoCsp-27" value="通过订购课程信息获取课包信息" style="html=1;verticalAlign=bottom;endArrow=block;" edge="1" parent="1">
          <mxGeometry width="80" relative="1" as="geometry">
            <mxPoint x="320" y="360" as="sourcePoint" />
            <mxPoint x="560" y="360" as="targetPoint" />
          </mxGeometry>
        </mxCell>
        <mxCell id="oOyvB2ZXRWYODoMXoCsp-28" value="返回课包信息" style="html=1;verticalAlign=bottom;endArrow=open;dashed=1;endSize=8;" edge="1" parent="1" target="oOyvB2ZXRWYODoMXoCsp-6">
          <mxGeometry relative="1" as="geometry">
            <mxPoint x="560" y="400" as="sourcePoint" />
            <mxPoint x="330" y="559" as="targetPoint" />
            <Array as="points">
              <mxPoint x="450" y="400" />
            </Array>
          </mxGeometry>
        </mxCell>
        <mxCell id="oOyvB2ZXRWYODoMXoCsp-29" value="排课系统" style="shape=umlLifeline;perimeter=lifelinePerimeter;whiteSpace=wrap;html=1;container=1;collapsible=0;recursiveResize=0;outlineConnect=0;" vertex="1" parent="1">
          <mxGeometry x="760" y="40" width="80" height="1250" as="geometry" />
        </mxCell>
        <mxCell id="oOyvB2ZXRWYODoMXoCsp-33" value="" style="html=1;points=[];perimeter=orthogonalPerimeter;" vertex="1" parent="oOyvB2ZXRWYODoMXoCsp-29">
          <mxGeometry x="35" y="420" width="10" height="80" as="geometry" />
        </mxCell>
        <mxCell id="oOyvB2ZXRWYODoMXoCsp-51" value="" style="html=1;points=[];perimeter=orthogonalPerimeter;" vertex="1" parent="oOyvB2ZXRWYODoMXoCsp-29">
          <mxGeometry x="35" y="590" width="10" height="80" as="geometry" />
        </mxCell>
        <mxCell id="oOyvB2ZXRWYODoMXoCsp-34" value="通过课包获取课程信息" style="html=1;verticalAlign=bottom;endArrow=block;" edge="1" parent="1" source="oOyvB2ZXRWYODoMXoCsp-6">
          <mxGeometry width="80" relative="1" as="geometry">
            <mxPoint x="660" y="480" as="sourcePoint" />
            <mxPoint x="800" y="480" as="targetPoint" />
          </mxGeometry>
        </mxCell>
        <mxCell id="oOyvB2ZXRWYODoMXoCsp-35" value="返回课程信息" style="html=1;verticalAlign=bottom;endArrow=open;dashed=1;endSize=8;" edge="1" parent="1" target="oOyvB2ZXRWYODoMXoCsp-6">
          <mxGeometry relative="1" as="geometry">
            <mxPoint x="800" y="520" as="sourcePoint" />
            <mxPoint x="720" y="520" as="targetPoint" />
          </mxGeometry>
        </mxCell>
        <mxCell id="oOyvB2ZXRWYODoMXoCsp-50" value="获取用户学习记录" style="html=1;verticalAlign=bottom;endArrow=block;" edge="1" parent="1">
          <mxGeometry width="80" relative="1" as="geometry">
            <mxPoint x="320" y="642" as="sourcePoint" />
            <mxPoint x="800" y="642" as="targetPoint" />
          </mxGeometry>
        </mxCell>
        <mxCell id="oOyvB2ZXRWYODoMXoCsp-53" value="返回用户学习记录" style="html=1;verticalAlign=bottom;endArrow=open;dashed=1;endSize=8;" edge="1" parent="1" target="oOyvB2ZXRWYODoMXoCsp-6">
          <mxGeometry relative="1" as="geometry">
            <mxPoint x="800" y="680" as="sourcePoint" />
            <mxPoint x="720" y="680" as="targetPoint" />
          </mxGeometry>
        </mxCell>
        <mxCell id="oOyvB2ZXRWYODoMXoCsp-54" value="我的课程相关信息" style="html=1;verticalAlign=bottom;endArrow=open;dashed=1;endSize=8;" edge="1" parent="1">
          <mxGeometry relative="1" as="geometry">
            <mxPoint x="320" y="760" as="sourcePoint" />
            <mxPoint x="100" y="760" as="targetPoint" />
          </mxGeometry>
        </mxCell>
      </root>
    </mxGraphModel>
  </diagram>
</mxfile>
